<mxfile host="app.diagrams.net" agent="Mozilla/5.0 (Windows NT 10.0; Win64; x64) AppleWebKit/537.36 (KHTML, like Gecko) Chrome/132.0.0.0 Safari/537.36 OPR/117.0.0.0" version="26.1.0">
  <diagram name="Page-1" id="jn4h7K58TT7QtxpP01rL">
    <mxGraphModel dx="1393" dy="760" grid="1" gridSize="10" guides="1" tooltips="1" connect="1" arrows="1" fold="1" page="1" pageScale="1" pageWidth="827" pageHeight="1169" math="0" shadow="0">
      <root>
        <mxCell id="0" />
        <mxCell id="1" parent="0" />
        <mxCell id="-ngVqHG8G1CUTfXcbOBs-1" value="Könyv" style="rounded=0;whiteSpace=wrap;html=1;" vertex="1" parent="1">
          <mxGeometry x="205" y="300" width="120" height="60" as="geometry" />
        </mxCell>
        <mxCell id="-ngVqHG8G1CUTfXcbOBs-2" value="Író" style="ellipse;whiteSpace=wrap;html=1;enumerate=0;fontStyle=4" vertex="1" parent="1">
          <mxGeometry x="420" y="280" width="70" height="40" as="geometry" />
        </mxCell>
        <mxCell id="-ngVqHG8G1CUTfXcbOBs-3" value="Műfaj" style="ellipse;whiteSpace=wrap;html=1;" vertex="1" parent="1">
          <mxGeometry x="420" y="340" width="70" height="40" as="geometry" />
        </mxCell>
        <mxCell id="-ngVqHG8G1CUTfXcbOBs-4" value="Fejezet" style="ellipse;whiteSpace=wrap;html=1;" vertex="1" parent="1">
          <mxGeometry x="425" y="400" width="60" height="60" as="geometry" />
        </mxCell>
        <mxCell id="-ngVqHG8G1CUTfXcbOBs-5" value="" style="endArrow=none;html=1;rounded=0;entryX=0.5;entryY=0;entryDx=0;entryDy=0;exitX=1;exitY=0.5;exitDx=0;exitDy=0;" edge="1" parent="1" source="-ngVqHG8G1CUTfXcbOBs-1" target="-ngVqHG8G1CUTfXcbOBs-4">
          <mxGeometry width="50" height="50" relative="1" as="geometry">
            <mxPoint x="390" y="580" as="sourcePoint" />
            <mxPoint x="440" y="530" as="targetPoint" />
          </mxGeometry>
        </mxCell>
        <mxCell id="-ngVqHG8G1CUTfXcbOBs-6" value="" style="endArrow=none;html=1;rounded=0;entryX=1;entryY=0.5;entryDx=0;entryDy=0;exitX=0;exitY=0.5;exitDx=0;exitDy=0;" edge="1" parent="1" source="-ngVqHG8G1CUTfXcbOBs-3" target="-ngVqHG8G1CUTfXcbOBs-1">
          <mxGeometry width="50" height="50" relative="1" as="geometry">
            <mxPoint x="390" y="580" as="sourcePoint" />
            <mxPoint x="440" y="530" as="targetPoint" />
          </mxGeometry>
        </mxCell>
        <mxCell id="-ngVqHG8G1CUTfXcbOBs-7" value="" style="endArrow=none;html=1;rounded=0;entryX=1;entryY=0.5;entryDx=0;entryDy=0;exitX=0;exitY=0.5;exitDx=0;exitDy=0;" edge="1" parent="1" source="-ngVqHG8G1CUTfXcbOBs-2" target="-ngVqHG8G1CUTfXcbOBs-1">
          <mxGeometry width="50" height="50" relative="1" as="geometry">
            <mxPoint x="390" y="580" as="sourcePoint" />
            <mxPoint x="440" y="530" as="targetPoint" />
          </mxGeometry>
        </mxCell>
        <mxCell id="-ngVqHG8G1CUTfXcbOBs-8" value="Forrása" style="rhombus;whiteSpace=wrap;html=1;" vertex="1" parent="1">
          <mxGeometry x="50" y="260" width="80" height="80" as="geometry" />
        </mxCell>
        <mxCell id="-ngVqHG8G1CUTfXcbOBs-9" value="" style="endArrow=none;html=1;rounded=0;entryX=0;entryY=0;entryDx=0;entryDy=0;exitX=1;exitY=0.5;exitDx=0;exitDy=0;" edge="1" parent="1" source="-ngVqHG8G1CUTfXcbOBs-8" target="-ngVqHG8G1CUTfXcbOBs-1">
          <mxGeometry width="50" height="50" relative="1" as="geometry">
            <mxPoint x="120" y="410" as="sourcePoint" />
            <mxPoint x="170" y="360" as="targetPoint" />
          </mxGeometry>
        </mxCell>
        <mxCell id="-ngVqHG8G1CUTfXcbOBs-10" value="" style="endArrow=classic;html=1;rounded=0;exitX=0.5;exitY=1;exitDx=0;exitDy=0;entryX=-0.008;entryY=0.65;entryDx=0;entryDy=0;entryPerimeter=0;" edge="1" parent="1" source="-ngVqHG8G1CUTfXcbOBs-8" target="-ngVqHG8G1CUTfXcbOBs-1">
          <mxGeometry width="50" height="50" relative="1" as="geometry">
            <mxPoint x="390" y="580" as="sourcePoint" />
            <mxPoint x="440" y="530" as="targetPoint" />
            <Array as="points" />
          </mxGeometry>
        </mxCell>
        <mxCell id="-ngVqHG8G1CUTfXcbOBs-11" value="Cím" style="ellipse;whiteSpace=wrap;html=1;enumerate=0;fontStyle=4" vertex="1" parent="1">
          <mxGeometry x="430" y="220" width="60" height="40" as="geometry" />
        </mxCell>
        <mxCell id="-ngVqHG8G1CUTfXcbOBs-12" value="" style="endArrow=none;html=1;rounded=0;entryX=0;entryY=0.5;entryDx=0;entryDy=0;exitX=1;exitY=0.5;exitDx=0;exitDy=0;" edge="1" parent="1" source="-ngVqHG8G1CUTfXcbOBs-1" target="-ngVqHG8G1CUTfXcbOBs-11">
          <mxGeometry width="50" height="50" relative="1" as="geometry">
            <mxPoint x="160" y="420" as="sourcePoint" />
            <mxPoint x="210" y="370" as="targetPoint" />
          </mxGeometry>
        </mxCell>
        <mxCell id="-ngVqHG8G1CUTfXcbOBs-13" value="Tárolja" style="rhombus;whiteSpace=wrap;html=1;" vertex="1" parent="1">
          <mxGeometry x="225" y="190" width="80" height="80" as="geometry" />
        </mxCell>
        <mxCell id="-ngVqHG8G1CUTfXcbOBs-14" value="Könyvtár" style="rounded=0;whiteSpace=wrap;html=1;" vertex="1" parent="1">
          <mxGeometry x="205" y="110" width="120" height="60" as="geometry" />
        </mxCell>
        <mxCell id="-ngVqHG8G1CUTfXcbOBs-15" value="" style="endArrow=none;html=1;rounded=0;entryX=0.5;entryY=1;entryDx=0;entryDy=0;exitX=0.5;exitY=0;exitDx=0;exitDy=0;" edge="1" parent="1" source="-ngVqHG8G1CUTfXcbOBs-13" target="-ngVqHG8G1CUTfXcbOBs-14">
          <mxGeometry width="50" height="50" relative="1" as="geometry">
            <mxPoint x="160" y="320" as="sourcePoint" />
            <mxPoint x="210" y="270" as="targetPoint" />
          </mxGeometry>
        </mxCell>
        <mxCell id="-ngVqHG8G1CUTfXcbOBs-16" value="" style="endArrow=none;html=1;rounded=0;entryX=0.5;entryY=1;entryDx=0;entryDy=0;exitX=0.5;exitY=0;exitDx=0;exitDy=0;" edge="1" parent="1" source="-ngVqHG8G1CUTfXcbOBs-1" target="-ngVqHG8G1CUTfXcbOBs-13">
          <mxGeometry width="50" height="50" relative="1" as="geometry">
            <mxPoint x="160" y="320" as="sourcePoint" />
            <mxPoint x="210" y="270" as="targetPoint" />
          </mxGeometry>
        </mxCell>
        <mxCell id="-ngVqHG8G1CUTfXcbOBs-18" value="Álnév" style="ellipse;whiteSpace=wrap;html=1;" vertex="1" parent="1">
          <mxGeometry x="530" y="250" width="70" height="40" as="geometry" />
        </mxCell>
        <mxCell id="-ngVqHG8G1CUTfXcbOBs-19" value="Rendes név" style="ellipse;whiteSpace=wrap;html=1;" vertex="1" parent="1">
          <mxGeometry x="520" y="300" width="90" height="40" as="geometry" />
        </mxCell>
        <mxCell id="-ngVqHG8G1CUTfXcbOBs-20" value="" style="endArrow=none;html=1;rounded=0;entryX=1;entryY=0.5;entryDx=0;entryDy=0;exitX=0;exitY=0.5;exitDx=0;exitDy=0;" edge="1" parent="1" source="-ngVqHG8G1CUTfXcbOBs-19" target="-ngVqHG8G1CUTfXcbOBs-2">
          <mxGeometry width="50" height="50" relative="1" as="geometry">
            <mxPoint x="390" y="320" as="sourcePoint" />
            <mxPoint x="440" y="270" as="targetPoint" />
          </mxGeometry>
        </mxCell>
        <mxCell id="-ngVqHG8G1CUTfXcbOBs-21" value="" style="endArrow=none;html=1;rounded=0;entryX=0;entryY=0.5;entryDx=0;entryDy=0;exitX=1;exitY=0.5;exitDx=0;exitDy=0;" edge="1" parent="1" source="-ngVqHG8G1CUTfXcbOBs-2" target="-ngVqHG8G1CUTfXcbOBs-18">
          <mxGeometry width="50" height="50" relative="1" as="geometry">
            <mxPoint x="390" y="320" as="sourcePoint" />
            <mxPoint x="440" y="270" as="targetPoint" />
          </mxGeometry>
        </mxCell>
        <mxCell id="-ngVqHG8G1CUTfXcbOBs-23" value="Fejezet" style="shape=ext;double=1;rounded=0;whiteSpace=wrap;html=1;" vertex="1" parent="1">
          <mxGeometry x="222.5" y="470" width="85" height="50" as="geometry" />
        </mxCell>
        <mxCell id="-ngVqHG8G1CUTfXcbOBs-25" value="Része" style="shape=rhombus;double=1;perimeter=rhombusPerimeter;whiteSpace=wrap;html=1;align=center;" vertex="1" parent="1">
          <mxGeometry x="205" y="390" width="120" height="60" as="geometry" />
        </mxCell>
        <mxCell id="-ngVqHG8G1CUTfXcbOBs-26" value="" style="endArrow=none;html=1;rounded=0;exitX=0.5;exitY=0;exitDx=0;exitDy=0;entryX=0.5;entryY=1;entryDx=0;entryDy=0;" edge="1" parent="1" source="-ngVqHG8G1CUTfXcbOBs-23" target="-ngVqHG8G1CUTfXcbOBs-25">
          <mxGeometry width="50" height="50" relative="1" as="geometry">
            <mxPoint x="390" y="420" as="sourcePoint" />
            <mxPoint x="440" y="370" as="targetPoint" />
          </mxGeometry>
        </mxCell>
        <mxCell id="-ngVqHG8G1CUTfXcbOBs-27" value="" style="endArrow=classic;html=1;rounded=0;exitX=0.5;exitY=0;exitDx=0;exitDy=0;entryX=0.5;entryY=1;entryDx=0;entryDy=0;" edge="1" parent="1" source="-ngVqHG8G1CUTfXcbOBs-25" target="-ngVqHG8G1CUTfXcbOBs-1">
          <mxGeometry width="50" height="50" relative="1" as="geometry">
            <mxPoint x="390" y="420" as="sourcePoint" />
            <mxPoint x="440" y="370" as="targetPoint" />
          </mxGeometry>
        </mxCell>
        <mxCell id="-ngVqHG8G1CUTfXcbOBs-28" value="Szám" style="ellipse;whiteSpace=wrap;html=1;" vertex="1" parent="1">
          <mxGeometry x="190" y="539.5" width="60" height="50" as="geometry" />
        </mxCell>
        <mxCell id="-ngVqHG8G1CUTfXcbOBs-29" value="Cím" style="ellipse;whiteSpace=wrap;html=1;" vertex="1" parent="1">
          <mxGeometry x="265" y="544.5" width="60" height="40" as="geometry" />
        </mxCell>
        <mxCell id="-ngVqHG8G1CUTfXcbOBs-30" value="" style="endArrow=none;html=1;rounded=0;entryX=0.5;entryY=1;entryDx=0;entryDy=0;exitX=0.5;exitY=0;exitDx=0;exitDy=0;" edge="1" parent="1" source="-ngVqHG8G1CUTfXcbOBs-29" target="-ngVqHG8G1CUTfXcbOBs-23">
          <mxGeometry width="50" height="50" relative="1" as="geometry">
            <mxPoint x="300" y="560" as="sourcePoint" />
            <mxPoint x="440" y="370" as="targetPoint" />
          </mxGeometry>
        </mxCell>
        <mxCell id="-ngVqHG8G1CUTfXcbOBs-31" value="" style="endArrow=none;html=1;rounded=0;exitX=0.5;exitY=0;exitDx=0;exitDy=0;entryX=0.5;entryY=1;entryDx=0;entryDy=0;" edge="1" parent="1" source="-ngVqHG8G1CUTfXcbOBs-28" target="-ngVqHG8G1CUTfXcbOBs-23">
          <mxGeometry width="50" height="50" relative="1" as="geometry">
            <mxPoint x="390" y="420" as="sourcePoint" />
            <mxPoint x="440" y="370" as="targetPoint" />
          </mxGeometry>
        </mxCell>
      </root>
    </mxGraphModel>
  </diagram>
</mxfile>
